<?xml version="1.0" encoding="UTF-8"?>
<svg version="1.1" xmlns="http://www.w3.org/2000/svg" width="110" height="110">
<path d="M0 0 C2.50449764 2.00896134 2.50449764 2.00896134 5 1.1875 C5.886875 0.6925 6.77375 0.1975 7.6875 -0.3125 C9.20249318 -1.01277562 10.72391647 -1.69923425 12.25 -2.375 C12.99378906 -2.71660156 13.73757812 -3.05820313 14.50390625 -3.41015625 C21.82181597 -6.43419408 28.85025487 -5.77518475 36.234375 -3.3515625 C43.77974811 -0.15559236 50.31025168 5.8887068 53.9453125 13.2265625 C58.33268887 24.11830103 57.16003664 32.06114469 52.6875 42.6875 C52.26597656 43.51507813 51.84445313 44.34265625 51.41015625 45.1953125 C50.4237856 47.70680305 50.4237856 47.70680305 51.55078125 50.22265625 C52.02902344 51.05667969 52.50726563 51.89070313 53 52.75 C56.99591446 59.85506435 57.88834108 66.4717987 56.0390625 74.50390625 C53.25204197 83.06744369 48.17546085 89.63312643 40.6875 94.6875 C31.20676417 99.25856906 22.99265253 99.83395352 13.03125 96.62109375 C9.86125032 95.35837721 7.39465872 93.75348955 4.6875 91.6875 C4.11902344 91.97496094 3.55054688 92.26242188 2.96484375 92.55859375 C-8.03685207 98.01226458 -16.97088415 100.5593153 -28.99609375 96.59375 C-36.73950885 93.56428574 -43.25689075 87.55728413 -46.6875 80 C-50.51857381 70.62219759 -50.12652656 62.61748512 -46.3828125 53.23046875 C-45.3125 50.6875 -45.3125 50.6875 -44.03515625 48.1796875 C-43.0487856 45.66819695 -43.0487856 45.66819695 -44.17578125 43.15234375 C-44.65402344 42.31832031 -45.13226563 41.48429687 -45.625 40.625 C-49.93536253 32.96082114 -50.42187418 26.00144067 -48.0625 17.5 C-45.15731963 8.85109146 -39.26525042 2.14317221 -31.34765625 -2.453125 C-21.33346464 -6.92335495 -8.97045127 -6.80278438 0 0 Z " fill="#E0DEDD" transform="translate(51.3125,8.3125)"/>
<path d="M0 0 C6.70876416 3.95616491 11.22149907 9.42771908 13.4375 16.9375 C14.46841936 27.30396687 12.4692956 34.61778193 6.4375 42.9375 C7.96590134 46.12166946 9.71456638 49.1333838 11.53515625 52.15625 C14.6441004 58.29338651 14.61766421 66.90954825 12.71875 73.390625 C9.19749989 80.83068572 3.11289668 85.81231969 -4.3125 89.1875 C-12.03115103 90.96872716 -19.39639294 90.39747154 -26.5625 86.9375 C-29.95393515 84.7359171 -32.24692321 82.88423038 -33.5625 78.9375 C-32.78515625 76.89453125 -32.78515625 76.89453125 -31.625 74.75 C-31.24472656 74.03457031 -30.86445312 73.31914063 -30.47265625 72.58203125 C-30.17230469 72.03933594 -29.87195312 71.49664062 -29.5625 70.9375 C-30.449375 71.040625 -31.33625 71.14375 -32.25 71.25 C-35.5625 70.9375 -35.5625 70.9375 -38.4375 68.5625 C-40.5625 65.9375 -40.5625 65.9375 -40.5625 63.9375 C-36.6025 63.9375 -32.6425 63.9375 -28.5625 63.9375 C-29.5470813 56.94697275 -31.04632924 52.48154328 -35.3203125 46.84765625 C-36.5625 44.9375 -36.5625 44.9375 -36.5625 41.9375 C-35.9025 40.9475 -35.2425 39.9575 -34.5625 38.9375 C-35.36411791 36.26604463 -35.36411791 36.26604463 -36.5625 33.9375 C-36.06878906 33.61136719 -35.57507812 33.28523438 -35.06640625 32.94921875 C-34.42574219 32.51222656 -33.78507812 32.07523438 -33.125 31.625 C-32.48691406 31.19574219 -31.84882812 30.76648437 -31.19140625 30.32421875 C-29.2739316 28.9340948 -29.2739316 28.9340948 -28.5625 25.9375 C-31.8625 25.9375 -35.1625 25.9375 -38.5625 25.9375 C-39.28493408 17.50910238 -37.80394555 12.60425092 -32.5625 5.9375 C-24.08772651 -3.05765432 -11.34435141 -5.24115931 0 0 Z " fill="#702ACF" transform="translate(87.5625,10.0625)"/>
<path d="M0 0 C5.5743168 4.07551339 8.99817644 8.94614962 11.12109375 15.55078125 C11.30859375 19.48828125 11.30859375 19.48828125 11.12109375 22.55078125 C7.16109375 22.55078125 3.20109375 22.55078125 -0.87890625 22.55078125 C1.4282442 27.47020874 1.4282442 27.47020874 4.1640625 28.4765625 C5.22560547 28.66798828 5.22560547 28.66798828 6.30859375 28.86328125 C7.56671875 29.09015625 8.82484375 29.31703125 10.12109375 29.55078125 C8.65090575 36.08495015 4.60644348 41.01664155 -0.75390625 44.9140625 C-7.52506885 48.92714378 -14.14745601 49.26628821 -21.87890625 48.55078125 C-27.78503301 46.74558636 -33.84970521 42.85714716 -37.1015625 37.55859375 C-41.21685699 29.50500668 -42.43972717 21.07880927 -40.30078125 12.1328125 C-37.45623588 5.6550069 -31.48694908 0.05986728 -25.01171875 -2.6484375 C-16.4043668 -4.8485711 -7.74021201 -4.51194625 0 0 Z " fill="#FDD603" transform="translate(47.87890625,51.44921875)"/>
<path d="M0 0 C6.70876416 3.95616491 11.22149907 9.42771908 13.4375 16.9375 C14.5453719 28.07776748 12.15031396 35.2289846 5.4375 43.9375 C4.81746094 43.5765625 4.19742188 43.215625 3.55859375 42.84375 C-4.89180352 38.41559423 -13.83868263 36.9426325 -23.15625 39.70703125 C-26.92891842 41.47370993 -29.83602561 43.75661321 -32.5625 46.9375 C-33.8825 46.2775 -35.2025 45.6175 -36.5625 44.9375 C-36.5625 41.9375 -36.5625 41.9375 -34.5625 38.9375 C-35.36411791 36.26604463 -35.36411791 36.26604463 -36.5625 33.9375 C-35.82193359 33.44830078 -35.82193359 33.44830078 -35.06640625 32.94921875 C-34.42574219 32.51222656 -33.78507812 32.07523438 -33.125 31.625 C-32.48691406 31.19574219 -31.84882812 30.76648437 -31.19140625 30.32421875 C-29.2739316 28.9340948 -29.2739316 28.9340948 -28.5625 25.9375 C-31.8625 25.9375 -35.1625 25.9375 -38.5625 25.9375 C-39.28493408 17.50910238 -37.80394555 12.60425092 -32.5625 5.9375 C-24.08772651 -3.05765432 -11.34435141 -5.24115931 0 0 Z " fill="#84C5EC" transform="translate(87.5625,10.0625)"/>
<path d="M0 0 C3.20717667 1.87307656 5.94485087 3.84424879 8.3125 6.75 C6.49482044 11.42403315 6.49482044 11.42403315 5.28125 13.59375 C4.14562008 16.1214424 3.90506608 18.24416304 3.6875 21 C3.501875 23.35125 3.501875 23.35125 3.3125 25.75 C6.6125 25.75 9.9125 25.75 13.3125 25.75 C12.3125 29.75 12.3125 29.75 9.25 32 C8.280625 32.5775 7.31125 33.155 6.3125 33.75 C6.9725 35.73 7.6325 37.71 8.3125 39.75 C7.3225 40.74 6.3325 41.73 5.3125 42.75 C-0.34506241 40.90800294 -0.34506241 40.90800294 -2.96484375 39.69921875 C-9.1797798 37.53246199 -17.70452889 37.50919498 -23.8125 40.125 C-24.76125 40.66125 -25.71 41.1975 -26.6875 41.75 C-28.01795985 42.42238293 -29.35074215 43.09022681 -30.6875 43.75 C-31.65298612 42.5264437 -32.60955898 41.29585189 -33.5625 40.0625 C-34.36300781 39.03576172 -34.36300781 39.03576172 -35.1796875 37.98828125 C-39.79502222 31.13702012 -39.33921059 23.68901996 -38.6875 15.75 C-37.02054865 8.65706606 -31.42946954 3.87492247 -25.6875 -0.25 C-18.12660074 -4.13159878 -7.5439681 -3.64849648 0 0 Z " fill="#F30B8C" transform="translate(45.6875,10.25)"/>
<path d="M0 0 C6.66766841 0.41672928 11.84314232 5.55751029 16.25 10.1875 C21.32824857 16.48674822 23.73208749 24.40312083 23.3984375 32.44921875 C22.51686362 38.09302017 20.30553469 43.43684015 17.72265625 48.5078125 C16.7362856 51.01930305 16.7362856 51.01930305 17.86328125 53.53515625 C18.34152344 54.36917969 18.81976563 55.20320313 19.3125 56.0625 C23.30841446 63.16756435 24.20084108 69.7842987 22.3515625 77.81640625 C19.56454197 86.37994369 14.48796085 92.94562643 7 98 C-2.48073583 102.57106906 -10.69484747 103.14645352 -20.65625 99.93359375 C-23.82624968 98.67087721 -26.29284128 97.06598955 -29 95 C-29.56847656 95.28746094 -30.13695312 95.57492188 -30.72265625 95.87109375 C-41.72435207 101.32476458 -50.65838415 103.8718153 -62.68359375 99.90625 C-69.996564 97.04518913 -75.92393375 91.37360766 -80 84.75 C-81 82 -81 82 -80 79 C-79.67128906 79.65226562 -79.34257813 80.30453125 -79.00390625 80.9765625 C-74.55403069 89.15275662 -68.93500031 94.12065742 -60 97 C-50.1280247 98.00734442 -42.53274669 97.45698916 -34 92 C-32.67406246 91.31874244 -31.34287117 90.64723971 -30 90 C-30 90.66 -30 91.32 -30 92 C-29.319375 92.268125 -28.63875 92.53625 -27.9375 92.8125 C-25.86287963 93.65117632 -23.81977754 94.56991182 -21.8046875 95.54296875 C-14.90432841 98.49070375 -6.13735714 98.15760251 1.015625 96.15625 C8.2068963 92.89150106 13.07781353 87.73156857 16.6640625 80.76953125 C18.178038 76.49764132 18.49872221 73.0482816 18.4375 68.5625 C18.43282715 67.81331299 18.4281543 67.06412598 18.42333984 66.29223633 C18.26964707 60.56624331 17.21758949 56.82638423 14 52 C12.72265625 50.0546875 12.72265625 50.0546875 12 48 C12.86328125 45.96484375 12.86328125 45.96484375 14.3125 43.9375 C19.11886985 37.07690085 18.77561595 29.11921378 18 21 C16.3200003 14.35304468 12.52945266 8.24601533 6.6796875 4.5234375 C4.47821286 3.28812728 2.26443975 2.1149529 0 1 C0 0.67 0 0.34 0 0 Z " fill="#080808" transform="translate(85,5)"/>
<path d="M0 0 C0.6875 1.75 0.6875 1.75 1 4 C-0.4375 6.25 -0.4375 6.25 -2 8 C-0.76308349 10.56855184 0.53135544 12.79703315 2.125 15.1875 C5.72776055 22.43380707 5.24407135 32.34071357 3.1875 40.04296875 C-0.15027484 47.51819365 -6.08272501 53.00205101 -13.30859375 56.6875 C-20.83249462 59.36266475 -29.21352297 59.37653801 -36.70703125 56.65234375 C-39.56688079 55.21733028 -42.30157709 53.71717821 -45 52 C-45 51.34 -45 50.68 -45 50 C-48.96 52.475 -48.96 52.475 -53 55 C-53 51.45595664 -52.39010515 50.89732095 -50.125 48.3125 C-49.59132813 47.68988281 -49.05765625 47.06726563 -48.5078125 46.42578125 C-47 45 -47 45 -45 45 C-44.2575 45.763125 -43.515 46.52625 -42.75 47.3125 C-36.92623493 53.00390677 -30.60218164 54.35116259 -22.734375 54.29296875 C-18.12018889 53.79859167 -14.15005341 51.99493796 -10 50 C-9.28585938 49.70867187 -8.57171875 49.41734375 -7.8359375 49.1171875 C-5.5300365 47.71402221 -5.0382556 46.45781746 -4 44 C-3.47019531 43.16662109 -3.47019531 43.16662109 -2.9296875 42.31640625 C1.09792235 35.61864025 1.1328652 28.08566826 -0.54296875 20.5625 C-1.95955362 16.43014193 -4.0830064 13.21875156 -7 10 C-5.6062718 5.56541027 -3.39417765 3.12621626 0 0 Z " fill="#EFECF1" transform="translate(100,45)"/>
<path d="M0 0 C2 1.5 2 1.5 3 3 C2.67 3.99 2.34 4.98 2 6 C1.04287109 6.09087891 1.04287109 6.09087891 0.06640625 6.18359375 C-0.75988281 6.26738281 -1.58617188 6.35117188 -2.4375 6.4375 C-3.67306641 6.55931641 -3.67306641 6.55931641 -4.93359375 6.68359375 C-6.98662025 6.78930815 -6.98662025 6.78930815 -8 8 C-8.04080783 9.99958364 -8.04254356 12.00045254 -8 14 C-6.02 14.66 -4.04 15.32 -2 16 C-2 15.01 -2 14.02 -2 13 C-3.32 13 -4.64 13 -6 13 C-6 11.35 -6 9.7 -6 8 C-4.52093108 7.97310784 -3.04172517 7.95365379 -1.5625 7.9375 C-0.73878906 7.92589844 0.08492187 7.91429688 0.93359375 7.90234375 C3 8 3 8 4 9 C4.07205511 10.68608966 4.08386068 12.37500659 4.0625 14.0625 C4.05347656 14.98160156 4.04445313 15.90070313 4.03515625 16.84765625 C4.02355469 17.55792969 4.01195313 18.26820312 4 19 C-0.5635552 21.62430773 -4.85144115 21.77353146 -10 21 C-13.125 19.125 -13.125 19.125 -15 16 C-15.68394713 12.52326874 -15.7296881 9.47171919 -15 6 C-10.72493011 0.48740988 -6.87603637 -0.84368544 0 0 Z " fill="#F5F0FB" transform="translate(81,63)"/>
<path d="M0 0 C0.66 0.66 1.32 1.32 2 2 C1.625 4.125 1.625 4.125 1 6 C-1.31 6 -3.62 6 -6 6 C-6.67801034 8.90073181 -6.67801034 8.90073181 -7 12 C-4.23776722 14.76223278 -1.79293383 14.57856291 2 15 C2 16.32 2 17.64 2 19 C-0.72612745 20.85376666 -2.13623489 20.99513447 -5.5 20.875 C-9.29736911 19.92565772 -10.61471502 19.02747709 -13 16 C-14.75290038 12.49419924 -14.67770616 8.81620942 -14 5 C-9.76320094 -0.19007885 -6.53123668 -0.76197761 0 0 Z " fill="#FEF6FB" transform="translate(38,22)"/>
<path d="M0 0 C1.66611905 -0.042721 3.33382885 -0.04063832 5 0 C6 1 6 1 6.125 3.5 C6 6 6 6 5 7 C3.33382885 7.04063832 1.66611905 7.042721 0 7 C-1.125 2.25 -1.125 2.25 0 0 Z " fill="#7732C4" transform="translate(46,62)"/>
<path d="M0 0 C1.2065625 0.0309375 1.2065625 0.0309375 2.4375 0.0625 C3.0625 2.4375 3.0625 2.4375 3.4375 5.0625 C2.7775 5.7225 2.1175 6.3825 1.4375 7.0625 C-1.1875 6.6875 -1.1875 6.6875 -3.5625 6.0625 C-3.605221 4.39638095 -3.60313832 2.72867115 -3.5625 1.0625 C-2.5625 0.0625 -2.5625 0.0625 0 0 Z " fill="#EE0F8F" transform="translate(57.5625,22.9375)"/>
<path d="M0 0 C0.66 1.65 1.32 3.3 2 5 C0.02 5.99 0.02 5.99 -2 7 C-2.99 5.68 -3.98 4.36 -5 3 C-2.25 0 -2.25 0 0 0 Z " fill="#F9ECF5" transform="translate(55,50)"/>
<path d="M0 0 C0.66 0.33 1.32 0.66 2 1 C2 1.99 2 2.98 2 4 C3.32 4 4.64 4 6 4 C6 4.99 6 5.98 6 7 C3.625 7.125 3.625 7.125 1 7 C0.34 6.34 -0.32 5.68 -1 5 C-0.625 2.375 -0.625 2.375 0 0 Z " fill="#8549D7" transform="translate(73,72)"/>
</svg>
